<?xml version="1.0" encoding="utf-8"?>
<?xml-stylesheet type="text/xsl" href="rss1.xsl"?>
<rss version="2.0" xmlns:atom="http://www.w3.org/2005/Atom" xmlns:content="http://purl.org/rss/1.0/modules/content/" xmlns:dc="http://purl.org/dc/elements/1.1/" xmlns:media="http://search.yahoo.com/mrss/">
<channel>
 <title>Getty</title>
 <link>http://www.gettyimg.com/</link>
 <atom:link href="http://www.gettyimg.com/" rel="self" type="application/rss+xml" />

 
                <item>
                <title><![CDATA[【Requests】[REQ AUD] - twenty one pilots - Clancy - Digital Remains]]></title>
                <link><![CDATA[https://sharemania.us/threads/twenty-one-pilots-clancy-digital-remains.245624/]]></link>
                <description><![CDATA[<article>
<blockquote class="messageText SelectQuoteContainer ugc baseHtml">
I saw there’s an another version of Clancy in the France edition of Apple Music. Tried getting it but no luck, hopefully anyone in here has it since I’m a cheapskate.<br>
<br>
<a href="https://music.apple.com/fr/album/clancy-digital-remains/1749137558" target="_blank" class="externalLink" rel="nofollow">https://music.apple.com/fr/album/clancy-digital-remains/1749137558</a><br>
<br>
also heard it’s available in somewhere but I just want it you know.
<div class="messageTextEndMarker">&nbsp;</div>
</blockquote>
</article>]]></description>
                <author><![CDATA[UnaTortaDeAsada]]></author>
                </item>

                
                <item>
                <title><![CDATA[【HD Live Performances】WEB-DL - Premios Gardel 2024 Movistar Arena de Buenos Aires, Argentina Star+.WEB-DL.720p-Tknobi]]></title>
                <link><![CDATA[https://sharemania.us/threads/premios-gardel-2024-movistar-arena-de-buenos-aires-argentina-star-web-dl-720p-tknobi.245627/]]></link>
                <description><![CDATA[<article>
<blockquote class="messageText SelectQuoteContainer ugc baseHtml">
<div style="text-align: center"><img src="https://i.postimg.cc/hj8ZKkHh/Premios-Gardel-2024-mkv.jpg" class="bbCodeImage LbImage" alt="[​IMG]" data-url="https://i.postimg.cc/hj8ZKkHh/Premios-Gardel-2024-mkv.jpg" style=""> <br>
​</div>
<div class="ToggleTriggerAnchor bbCodeSpoilerContainer">
<button type="button" class="button bbCodeSpoilerButton ToggleTrigger Tooltip JsOnly" data-target="> .SpoilerTarget"><span>Spoiler: <span class="SpoilerTitle">MediaInfo</span></span></button>
<div class="SpoilerTarget bbCodeSpoilerText">Format : Matroska<br>
Format version : Version 4<br>
File size : 9.14 GiB<br>
Duration : 3 h 37 min<br>
Overall bit rate : 6 023 kb/s<br>
Encoded date : UTC 2024-05-29 20:21:41<br>
Writing application : mkvmerge v66.0.0 ('Josie') 64-bit<br>
Writing library : libebml v1.4.2 + libmatroska v1.6.4 / Lavf60.3.100<br>
Cover : Yes<br>
<br>
DATE : 2024<br>
<br>
Video<br>
ID : 1<br>
Format : AVC<br>
Format/Info : Advanced Video Codec<br>
Format profile : High@L3.2<br>
Format settings : CABAC / 4 Ref Frames<br>
Format settings, CABAC : Yes<br>
Format settings, Reference frames : 4 frames<br>
Codec ID : V_MPEG4/ISO/AVC<br>
Duration : 3 h 37 min<br>
Bit rate mode : Constant<br>
Bit rate : 5 765 kb/s<br>
Nominal bit rate : 6 872 kb/s<br>
Width : 1 280 pixels<br>
Height : 720 pixels<br>
Display aspect ratio : 16:9<br>
Frame rate mode : Constant<br>
Frame rate : 59.940 (60000/1001) FPS<br>
Color space : YUV<br>
Chroma subsampling : 4:2:0<br>
Bit depth : 8 bits<br>
Scan type : Progressive<br>
Bits/(Pixel*Frame) : 0.104<br>
Stream size : 8.75 GiB (96%)<br>
Writing library : AVC Coding<br>
Default : Yes<br>
Forced : No<br>
Color range : Limited<br>
VENDOR_ID : [0][0][0][0]<br>
<br>
Audio<br>
ID : 2<br>
Format : AAC LC<br>
Format/Info : Advanced Audio Codec Low Complexity<br>
Codec ID : A_AAC-2<br>
Duration : 3 h 37 min<br>
Bit rate : 253 kb/s<br>
Channel(s) : 2 channels<br>
Channel layout : L R<br>
Sampling rate : 48.0 kHz<br>
Frame rate : 46.875 FPS (1024 SPF)<br>
Compression mode : Lossy<br>
Stream size : 394 MiB (4%)<br>
Title : Español (Latinoamericano) / BAMTech audio<br>
Language : Spanish<br>
Default : Yes<br>
Forced : No<br>
VENDOR_ID : [0][0][0][0]</div>
</div><br>
<div style="text-align: center"><br>
<div class="bbCodeBlock bbCodeVfcHH HiddenContent">
<div class="attribution type">Hidden Content:</div>
<blockquote>You must reply before you can see the hidden data contained here.</blockquote>
</div></div>
<div class="messageTextEndMarker">&nbsp;</div>
</blockquote>
</article>]]></description>
                <author><![CDATA[tknobi]]></author>
                </item>

                
                <item>
                <title><![CDATA[【Requests】[REQ AUD] - Tom Jones – She's A Lady (To Wong Foo... Movie ver.) [Vinyl Single / Lossless]]]></title>
                <link><![CDATA[https://sharemania.us/threads/tom-jones-%E2%80%93-shes-a-lady-to-wong-foo-movie-ver-vinyl-single-lossless.245625/]]></link>
                <description><![CDATA[<article>
<blockquote class="messageText SelectQuoteContainer ugc baseHtml">
Hi,<br>
<br>
Does anyone have this single?<br>
Looking for flac, wav.. [lossless]<br>
thank you.<br>
<br>
<a href="https://www.discogs.com/pt_BR/release/969788-Tom-Jones-Shes-A-Lady" target="_blank" class="externalLink" rel="nofollow">https://www.discogs.com/pt_BR/release/969788-Tom-Jones-Shes-A-Lady</a><br>
<br>
<img src="https://i.discogs.com/fAp6ZldiCXx2qI-lD83TM0Ins2oyfVdoJbq0fH_vDAg/rs:fit/g:sm/q:90/h:590/w:590/czM6Ly9kaXNjb2dz/LWRhdGFiYXNlLWlt/YWdlcy9SLTk2OTc4/OC0xNTUyNzcwNDQx/LTk0MTkuanBlZw.jpeg" class="bbCodeImage LbImage" alt="[​IMG]" data-url="https://i.discogs.com/fAp6ZldiCXx2qI-lD83TM0Ins2oyfVdoJbq0fH_vDAg/rs:fit/g:sm/q:90/h:590/w:590/czM6Ly9kaXNjb2dz/LWRhdGFiYXNlLWlt/YWdlcy9SLTk2OTc4/OC0xNTUyNzcwNDQx/LTk0MTkuanBlZw.jpeg" style="">
<div class="messageTextEndMarker">&nbsp;</div>
</blockquote>
</article>]]></description>
                <author><![CDATA[SCANDAL]]></author>
                </item>

                
                <item>
                <title><![CDATA[【Introductions &amp; Farewells】Hello]]></title>
                <link><![CDATA[https://sharemania.us/threads/hello.245623/]]></link>
                <description><![CDATA[<article>
<blockquote class="messageText SelectQuoteContainer ugc baseHtml">
Hello All,<br>
<br>
Thanks for letting me join this forum.<br>
<br>
I like cooking, make up and photography.<br>
<br>
See you around!
<div class="messageTextEndMarker">&nbsp;</div>
</blockquote>
</article>]]></description>
                <author><![CDATA[Tania8]]></author>
                </item>

                
                <item>
                <title><![CDATA[【HD Live Performances】WEB-RiP - Please delete]]></title>
                <link><![CDATA[https://sharemania.us/threads/please-delete.245626/]]></link>
                <description><![CDATA[<article>
<blockquote class="messageText SelectQuoteContainer ugc baseHtml">
<div style="text-align: center"><b>Please delete</b>​</div>
<div class="messageTextEndMarker">&nbsp;</div>
</blockquote>
</article>]]></description>
                <author><![CDATA[ThePixelFarm]]></author>
                </item>

                </channel></rss>